# xmcd CD database file
#
# Track frame offsets:
#	150
#	3001
#	14595
#	42442
#
# Disc length: 831 seconds
#
# Revision: 0
# Processed by: cddbd v1.5PL3 Copyright (c) Steve Scherf et al.
# Submitted via: CDex 1.40Release
#
DISCID=24033d04
DTITLE=CORN ELIUS - nova musicha n.4
DYEAR=2003
DGENRE=JPop
TTITLE0=the Star-Spangled-Gayo
TTITLE1=boiufuioboiufuioboiufuiob-pointniopointniopointniop
TTITLE2=CounterPoint Mix
TTITLE3=from Nakameguro to Everywhe.mov
EXTD=YEAR: 2003
EXTT0=
EXTT1=
EXTT2=
EXTT3=
PLAYORDER=
